<svg width="120" height="40" viewBox="0 0 120 40" fill="none" xmlns="http://www.w3.org/2000/svg">
  <circle cx="20" cy="20" r="10" stroke="#666666" stroke-width="2"/>
  <circle cx="20" cy="20" r="5" stroke="#666666" stroke-width="2"/>
  <path d="M45 15H47.5L50.5 23.5L53.5 15H56L51.5 27H49.5L45 15Z" fill="#666666"/>
  <path d="M57 15H59.5V27H57V15Z" fill="#666666"/>
  <path d="M61 15H63.5V24.5H68.5V27H61V15Z" fill="#666666"/>
  <path d="M69 15H71.5V27H69V15Z" fill="#666666"/>
  <path d="M73 21C73 17.7 75.5 15 78.5 15C81.5 15 84 17.7 84 21C84 24.3 81.5 27 78.5 27C75.5 27 73 24.3 73 21ZM75.5 21C75.5 23 76.8 24.5 78.5 24.5C80.2 24.5 81.5 23 81.5 21C81.5 19 80.2 17.5 78.5 17.5C76.8 17.5 75.5 19 75.5 21Z" fill="#666666"/>
  <path d="M85 15H87.5V17.5H89.5C91.7 17.5 93 18.8 93 21C93 23.2 91.7 24.5 89.5 24.5H87.5V27H85V15ZM87.5 19.5V22.5H89.5C90.3 22.5 90.7 22 90.7 21C90.7 20 90.3 19.5 89.5 19.5H87.5Z" fill="#666666"/>
</svg>
