<svg width="120" height="40" viewBox="0 0 120 40" fill="none" xmlns="http://www.w3.org/2000/svg">
  <path d="M20 30C25.5228 30 30 25.5228 30 20C30 14.4772 25.5228 10 20 10C14.4772 10 10 14.4772 10 20C10 25.5228 14.4772 30 20 30Z" stroke="#666666" stroke-width="2"/>
  <path d="M15 20C15 17.7909 16.7909 16 19 16H21C23.2091 16 25 17.7909 25 20V20C25 22.2091 23.2091 24 21 24H19C16.7909 24 15 22.2091 15 20V20Z" stroke="#666666" stroke-width="2"/>
  <path d="M45 15H47.5V24.5H52.5V27H45V15Z" fill="#666666"/>
  <path d="M53 21C53 17.7 55.5 15 58.5 15C61.5 15 64 17.7 64 21C64 24.3 61.5 27 58.5 27C55.5 27 53 24.3 53 21ZM55.5 21C55.5 23 56.8 24.5 58.5 24.5C60.2 24.5 61.5 23 61.5 21C61.5 19 60.2 17.5 58.5 17.5C56.8 17.5 55.5 19 55.5 21Z" fill="#666666"/>
  <path d="M65 15H67.5V27H65V15Z" fill="#666666"/>
  <path d="M69 21C69 17.7 71.5 15 74.5 15C77.5 15 80 17.7 80 21C80 24.3 77.5 27 74.5 27C71.5 27 69 24.3 69 21ZM71.5 21C71.5 23 72.8 24.5 74.5 24.5C76.2 24.5 77.5 23 77.5 21C77.5 19 76.2 17.5 74.5 17.5C72.8 17.5 71.5 19 71.5 21Z" fill="#666666"/>
  <path d="M81 15H83.5V19.5L87 15H90L86 19.5L90 27H87L84.5 22L83.5 23.2V27H81V15Z" fill="#666666"/>
  <path d="M91 15H93.5V24.5H98.5V27H91V15Z" fill="#666666"/>
</svg>
