<svg width="120" height="40" viewBox="0 0 120 40" fill="none" xmlns="http://www.w3.org/2000/svg">
  <path d="M30 20C30 25.5228 25.5228 30 20 30C14.4772 30 10 25.5228 10 20C10 14.4772 14.4772 10 20 10C25.5228 10 30 14.4772 30 20Z" stroke="#666666" stroke-width="2"/>
  <path d="M20 15V25M15 20H25" stroke="#666666" stroke-width="2"/>
  <path d="M45 15H47.5L50.5 23.5L53.5 15H56L51.5 27H49.5L45 15Z" fill="#666666"/>
  <path d="M57 15H59.5V27H57V15Z" fill="#666666"/>
  <path d="M61 15H63.5V17.5H65.5C67.7 17.5 69 18.8 69 21C69 23.2 67.7 24.5 65.5 24.5H63.5V27H61V15ZM63.5 19.5V22.5H65.5C66.3 22.5 66.7 22 66.7 21C66.7 20 66.3 19.5 65.5 19.5H63.5Z" fill="#666666"/>
  <path d="M70 21C70 17.7 72.5 15 75.5 15C78.5 15 81 17.7 81 21C81 24.3 78.5 27 75.5 27C72.5 27 70 24.3 70 21ZM72.5 21C72.5 23 73.8 24.5 75.5 24.5C77.2 24.5 78.5 23 78.5 21C78.5 19 77.2 17.5 75.5 17.5C73.8 17.5 72.5 19 72.5 21Z" fill="#666666"/>
  <path d="M82 15H84.5V19.5L88 15H91L87 19.5L91 27H88L85.5 22L84.5 23.2V27H82V15Z" fill="#666666"/>
</svg>
